<?xml version="1.0" standalone="no"?>
<!DOCTYPE svg PUBLIC "-//W3C//DTD SVG 20010904//EN"
 "http://www.w3.org/TR/2001/REC-SVG-20010904/DTD/svg10.dtd">
<svg version="1.0" xmlns="http://www.w3.org/2000/svg"
 width="192.000000pt" height="192.000000pt" viewBox="0 0 192.000000 192.000000"
 preserveAspectRatio="xMidYMid meet">

<g transform="translate(0.000000,192.000000) scale(0.100000,-0.100000)"
fill="#000000" stroke="none">
<path d="M840 1554 c-99 -26 -179 -72 -255 -148 -116 -116 -165 -234 -165
-398 0 -97 -3 -94 71 -82 l37 6 4 97 c3 82 8 106 35 164 36 76 116 166 181
204 140 82 324 82 464 0 65 -38 145 -128 181 -204 27 -58 32 -82 35 -164 l4
-97 37 -6 c74 -12 71 -15 71 82 0 164 -49 282 -165 398 -112 111 -242 165
-400 163 -44 0 -105 -7 -135 -15z"/>
<path d="M807 705 c-64 -10 -106 -26 -250 -98 -180 -90 -256 -115 -384 -124
l-73 -6 0 -55 0 -55 83 6 c150 11 293 57 445 145 136 79 203 97 352 97 149 0
216 -18 352 -97 152 -88 295 -134 446 -145 l82 -6 0 55 0 55 -73 6 c-128 9
-204 34 -384 124 -151 75 -182 87 -260 99 -105 16 -229 16 -336 -1z"/>
</g>
</svg>
